<?xml version="1.0" standalone="no"?>
<!DOCTYPE svg PUBLIC "-//W3C//DTD SVG 20010904//EN"
 "http://www.w3.org/TR/2001/REC-SVG-20010904/DTD/svg10.dtd">
<svg version="1.0" xmlns="http://www.w3.org/2000/svg"
 width="512.000000pt" height="512.000000pt" viewBox="0 0 512.000000 512.000000"
 preserveAspectRatio="xMidYMid meet">

<g transform="translate(0.000000,512.000000) scale(0.100000,-0.100000)"
fill="#000000" stroke="none">
<path d="M378 5099 c-49 -25 -78 -81 -78 -151 l0 -53 -52 -24 c-65 -30 -166
-129 -197 -194 -89 -185 -58 -381 84 -522 83 -84 201 -135 311 -135 80 0 154
-72 154 -151 0 -46 -39 -108 -82 -130 -32 -17 -60 -19 -218 -19 -210 0 -244
-10 -280 -80 -25 -50 -25 -90 0 -140 31 -60 78 -80 190 -80 l90 0 0 -40 c0
-59 33 -116 80 -140 110 -56 220 20 220 152 l0 53 65 34 c107 55 188 159 221
284 63 237 -99 494 -344 546 -29 6 -69 11 -89 11 -77 0 -153 74 -153 150 0 48
33 103 78 128 37 21 52 22 221 22 211 0 245 10 281 80 25 50 25 90 0 140 -31
60 -78 80 -190 80 l-90 0 0 40 c0 120 -118 194 -222 139z"/>
<path d="M1798 4499 c-43 -22 -78 -81 -78 -129 0 -17 9 -49 20 -70 31 -61 71
-76 225 -84 424 -20 803 -157 1145 -414 95 -71 274 -245 353 -342 212 -262
358 -577 422 -912 10 -53 10 -66 0 -60 -6 4 -112 79 -234 166 -199 142 -228
160 -269 163 -84 7 -162 -62 -162 -144 0 -78 12 -88 414 -375 413 -295 423
-301 496 -263 59 30 644 524 667 563 74 122 -63 271 -189 206 -17 -9 -115 -86
-217 -171 l-186 -156 -7 29 c-3 16 -16 78 -28 138 -145 740 -676 1390 -1376
1687 -215 92 -440 150 -674 174 -189 21 -276 19 -322 -6z"/>
<path d="M78 2899 c-23 -12 -46 -35 -58 -59 -20 -39 -20 -56 -20 -1380 0
-1324 0 -1341 20 -1380 13 -26 34 -47 60 -60 37 -19 58 -20 370 -20 312 0 333
1 370 20 26 13 47 34 60 60 20 39 20 56 20 1380 0 1324 0 1341 -20 1380 -13
26 -34 47 -60 60 -37 19 -58 20 -372 20 -312 -1 -335 -2 -370 -21z"/>
<path d="M1490 2083 c-19 -10 -45 -33 -57 -52 l-23 -34 0 -947 0 -947 23 -34
c46 -69 52 -70 434 -67 327 3 343 4 369 24 15 11 37 33 48 48 21 27 21 34 21
976 0 942 0 949 -21 976 -11 15 -33 37 -48 48 -26 20 -42 21 -369 24 -311 2
-345 1 -377 -15z"/>
<path d="M2905 1486 c-45 -19 -83 -70 -90 -119 -3 -23 -5 -317 -3 -654 3 -600
3 -612 24 -639 11 -15 33 -37 48 -48 26 -20 42 -21 369 -24 382 -3 388 -2 434
67 l23 34 0 647 0 647 -23 34 c-45 68 -54 69 -422 69 -252 -1 -337 -4 -360
-14z"/>
<path d="M4298 879 c-23 -12 -46 -35 -58 -59 -19 -37 -20 -58 -20 -370 0 -312
1 -333 20 -370 13 -26 34 -47 60 -60 37 -19 58 -20 370 -20 312 0 333 1 370
20 26 13 47 34 60 60 19 37 20 58 20 370 0 312 -1 333 -20 370 -13 26 -34 47
-60 60 -37 19 -58 20 -372 20 -312 -1 -335 -2 -370 -21z"/>
</g>
</svg>
